<svg xmlns="http://www.w3.org/2000/svg" viewBox="0 0 48 48" width="24px" height="24px" baseProfile="basic"><path fill="#12d9e3" d="M40,21H15c-0.553,0-1,0.447-1,1v1h-0.877c-2.299,0-4.294,1.558-4.851,3.788l-1.481,5.926	c-0.556,2.224,0.013,4.581,1.521,6.306l1.942,2.222C12.345,43.63,15.363,45,18.535,45H32c4.963,0,9-4.037,9-9V22	C41,21.447,40.553,21,40,21z"/><path fill="#12d9e3" d="M16.5,1C14.57,1,13,2.57,13,4.5V24c0,0.553,0.447,1,1,1h5c0.553,0,1-0.447,1-1V4.5	C20,2.57,18.43,1,16.5,1z"/><path fill="#12d9e3" d="M23.5,16c-1.93,0-3.5,1.57-3.5,3.5V38c0,0.553,0.447,1,1,1h5c0.553,0,1-0.447,1-1V19.5	C27,17.57,25.43,16,23.5,16z"/><path fill="#12d9e3" d="M30.5,16c-1.93,0-3.5,1.57-3.5,3.5V37c0,0.553,0.447,1,1,1h5c0.553,0,1-0.447,1-1V19.5	C34,17.57,32.43,16,30.5,16z"/><path fill="#12d9e3" d="M37.5,18c-1.93,0-3.5,1.57-3.5,3.5V36c0,0.553,0.447,1,1,1h5c0.553,0,1-0.447,1-1V21.5	C41,19.57,39.43,18,37.5,18z"/><path fill="#324561" d="M21,24c-0.553,0-1-0.447-1-1v-3c0-0.553,0.447-1,1-1s1,0.447,1,1v3C22,23.553,21.553,24,21,24z"/><path fill="#324561" d="M14,30c-0.553,0-1-0.447-1-1v-5c0-0.553,0.447-1,1-1s1,0.447,1,1v5C15,29.553,14.553,30,14,30z"/><path fill="#324561" d="M35,24c-0.553,0-1-0.447-1-1v-2c0-0.553,0.447-1,1-1s1,0.447,1,1v2C36,23.553,35.553,24,35,24z"/><path fill="#324561" d="M28,24c-0.553,0-1-0.447-1-1v-3c0-0.553,0.447-1,1-1s1,0.447,1,1v3C29,23.553,28.553,24,28,24z"/></svg>
